PathFileType	4	(X/Y/Z)	C:/Users/opensim2020/Desktop/walking_exp_matlab/subject03_walking10_straight_02.trc	
DataRate	CameraRate	NumFrames	NumMarkers	Units	OrigDataRate	OrigDataStartFrame	OrigNumFrames	
100.00	100.00	8	45	mm	100.00	2075	347	
Frame#	Time	LFHD			RFHD			LBHD			RBHD			C7			T10			CLAV			STRN			RBAK			LSHO			LUPA			LELB			LFRM			LWRA			LWRB			LFIN			RSHO			RUPA			RELB			RFRM			RWRA			RWRB			RFIN			LASI			RASI			LPSI			RPSI			LTHI			LKNE			LTIB			LANK			LHEE			LTOE			RTHI			RKNE			RTIB			RANK			RHEE			RTOE			*39			*40			*41			*42			*43			*44			
		X1	Y1	Z1	X2	Y2	Z2	X3	Y3	Z3	X4	Y4	Z4	X5	Y5	Z5	X6	Y6	Z6	X7	Y7	Z7	X8	Y8	Z8	X9	Y9	Z9	X10	Y10	Z10	X11	Y11	Z11	X12	Y12	Z12	X13	Y13	Z13	X14	Y14	Z14	X15	Y15	Z15	X16	Y16	Z16	X17	Y17	Z17	X18	Y18	Z18	X19	Y19	Z19	X20	Y20	Z20	X21	Y21	Z21	X22	Y22	Z22	X23	Y23	Z23	X24	Y24	Z24	X25	Y25	Z25	X26	Y26	Z26	X27	Y27	Z27	X28	Y28	Z28	X29	Y29	Z29	X30	Y30	Z30	X31	Y31	Z31	X32	Y32	Z32	X33	Y33	Z33	X34	Y34	Z34	X35	Y35	Z35	X36	Y36	Z36	X37	Y37	Z37	X38	Y38	Z38	X39	Y39	Z39	X40	Y40	Z40	X41	Y41	Z41	X42	Y42	Z42	X43	Y43	Z43	X44	Y44	Z44	X45	Y45	Z45	

261	2.600	-992.55420	-713.05206	1622.95789	-1125.69458	-705.67572	1624.32642	-990.27173	-589.31940	1568.29077	-1120.64099	-586.93988	1569.52136	-1042.01611	-567.21997	1410.94421	-1029.89063	-539.51044	1098.58655	-1043.40149	-690.58563	1337.43640	-1027.78528	-736.96423	1173.52039	-1125.93457	-515.04279	1229.08569	-889.02795	-655.68677	1382.88770	-809.99725	-655.59125	1189.07739	-792.87323	-662.87311	1066.49231	-787.28809	-692.96271	939.51398	-812.38586	-716.71204	820.93488	-761.86810	-692.36902	827.11084	-771.88849	-703.20117	740.97565	-1202.75806	-638.06915	1349.88306	-1263.79871	-640.50763	1124.19580	-1272.08618	-658.51709	1012.09155	-1269.79883	-676.85938	876.16321	-1232.37549	-709.13245	782.55109	-1275.60168	-676.64380	775.50519	-1263.24438	-699.73206	704.35675	-903.92444	-696.09320	930.05560	-1140.85022	-713.75427	939.28894	-963.99182	-539.50616	958.13855	-1112.02222	-550.75610	972.12219	-857.59827	-622.93250	625.32239	-878.47186	-615.02228	445.75763	-892.61975	-462.19446	316.59006	-946.06390	-319.48251	171.24500	-989.03906	-272.11887	178.87173	-965.65533	-386.89548	39.76408	-1181.91943	-679.18964	647.03461	-1140.49377	-712.58398	469.64664	-1143.01685	-689.11877	281.49716	-1090.06250	-687.43250	65.96935	-1039.74976	-641.80884	34.50755	-1069.80835	-828.85925	31.23160	-1041.53271	-623.59802	1674.10718															 
262	2.610	-992.97687	-719.55988	1623.12537	-1126.11963	-712.55273	1624.34351	-990.99976	-595.98907	1567.97046	-1121.38562	-594.02338	1569.06335	-1042.81763	-574.36578	1410.84253	-1030.86414	-546.16077	1098.56567	-1043.56250	-697.68140	1337.28894	-1027.77771	-743.75806	1173.25500	-1127.32739	-522.63446	1229.12903	-889.17230	-661.81683	1382.67004	-809.81604	-659.99225	1188.83606	-792.26941	-666.69336	1066.33069	-785.74408	-696.26093	939.28241	-810.01318	-719.80286	820.46216	-759.86926	-694.89337	827.09064	-769.15405	-705.69196	740.91071	-1203.26880	-646.37115	1349.63208	-1264.79126	-649.75250	1124.04773	-1273.32141	-668.36658	1012.05634	-1271.08325	-687.42822	876.23682	-1233.58325	-719.99127	782.71991	-1277.05737	-687.83264	775.56006	-1264.73132	-711.27222	704.64148	-904.43677	-701.69641	929.47144	-1141.44324	-720.75891	939.29590	-965.38647	-545.22620	957.38531	-1113.30847	-557.45306	972.38208	-857.14685	-632.36072	624.60687	-877.15851	-629.50433	444.75806	-892.24866	-475.38782	318.35513	-946.33099	-330.46286	175.58151	-990.37408	-283.37064	182.78180	-962.02081	-397.58124	43.48538	-1182.50208	-685.84241	647.08356	-1140.98621	-717.32007	469.50562	-1143.30054	-692.03430	281.40765	-1090.01367	-687.53937	66.02182	-1039.78516	-641.82288	34.51353	-1069.63904	-828.97034	31.16065	-1042.24646	-629.98981	1673.85596															 
263	2.620	-993.49591	-725.89319	1623.33044	-1126.49695	-719.46906	1624.35535	-991.67377	-602.65546	1567.58911	-1122.02429	-601.09448	1568.60596	-1044.16858	-581.40637	1410.96814	-1031.99341	-552.68414	1098.68433	-1043.64343	-704.65460	1337.14636	-1027.66016	-750.31769	1172.97876	-1128.65710	-529.86420	1229.29980	-889.24463	-667.68506	1382.42297	-809.61493	-664.19263	1188.52649	-791.72980	-670.72919	1066.26367	-784.19312	-699.56384	939.01251	-807.60846	-723.19385	820.13214	-757.94623	-697.50397	826.99341	-766.31177	-708.59326	740.93842	-1203.74451	-654.65741	1349.35217	-1265.71399	-659.16956	1123.91431	-1274.46350	-678.33063	1012.03436	-1272.32874	-698.09161	876.30939	-1234.71912	-730.81146	782.98932	-1278.49597	-699.05310	775.72583	-1266.20715	-722.93317	704.95038	-904.87781	-707.24335	929.00879	-1142.01025	-727.71552	939.29657	-966.88098	-550.76807	956.72278	-1114.58789	-564.22345	972.18475	-857.08313	-641.92993	624.38080	-875.95221	-644.16205	444.50183	-892.09424	-488.81030	320.38922	-946.25916	-342.55844	179.26169	-991.09229	-295.61917	185.82697	-958.47821	-409.67664	46.78130	-1183.19141	-691.80963	647.15051	-1141.40210	-721.84503	469.35617	-1143.46973	-694.81512	281.30615	-1089.88916	-687.66394	66.06558	-1039.73560	-641.80713	34.64842	-1069.54285	-829.00098	31.08287	-1042.85974	-636.38977	1673.59436															 
264	2.630	-993.55780	-732.48480	1623.49255	-1126.74487	-726.29254	1624.39404	-992.21448	-609.35254	1567.30383	-1122.61401	-608.15076	1568.23926	-1044.66370	-588.51819	1411.06042	-1033.17383	-559.03632	1098.75598	-1043.62000	-711.46075	1337.02185	-1027.47168	-756.74652	1172.77490	-1130.03857	-537.07343	1229.56116	-889.40027	-673.14795	1382.09863	-809.38098	-668.22516	1188.28284	-790.95361	-674.38696	1065.95911	-782.65472	-702.91235	938.83832	-805.29858	-726.72034	819.89313	-755.86035	-700.61176	827.14917	-763.56250	-711.90308	741.11029	-1204.01733	-663.03015	1349.17334	-1266.48071	-668.64844	1123.83826	-1275.49878	-688.43176	1012.09430	-1273.50000	-708.87622	876.43018	-1235.85327	-741.74719	783.25031	-1279.87317	-710.37061	775.88666	-1267.68311	-734.66833	705.33160	-905.27008	-712.78448	928.77429	-1142.60706	-734.58209	939.34351	-968.31335	-556.47186	956.00903	-1115.86572	-570.88080	972.09296	-856.83270	-651.35455	624.60211	-874.74536	-658.79254	444.61597	-891.78607	-502.65479	322.34149	-945.84406	-355.61737	181.96910	-991.29181	-308.74884	188.00780	-955.46039	-423.09698	49.56924	-1184.34521	-697.01758	647.56812	-1141.73376	-726.34644	469.17188	-1143.63098	-697.53680	281.18384	-1089.80078	-687.86816	66.03047	-1039.68066	-641.84222	34.67736	-1069.40454	-829.08716	31.01514	-1043.28320	-642.91571	1673.36011															 
265	2.640	-993.71460	-738.99823	1623.66736	-1126.93127	-733.18646	1624.38953	-992.65240	-616.11719	1567.12134	-1123.13440	-615.17566	1567.88501	-1045.73035	-595.39313	1411.26208	-1034.39868	-565.20502	1098.91931	-1043.56006	-718.13074	1336.97900	-1027.27283	-762.97406	1172.59009	-1131.40210	-544.12842	1229.93091	-889.86792	-677.96185	1381.83142	-809.19916	-672.07806	1188.09729	-790.38751	-677.92865	1065.98657	-781.20874	-706.31946	938.82574	-803.24188	-730.30139	819.73322	-754.33398	-703.27112	827.11279	-760.85846	-715.60156	741.50812	-1204.31934	-671.13629	1349.04456	-1267.16394	-678.25879	1123.89380	-1276.41833	-698.69818	1012.27197	-1274.58325	-719.76068	876.68494	-1236.91821	-752.66534	783.64545	-1281.23718	-721.75385	776.20349	-1269.15662	-746.42865	705.86847	-905.66241	-718.56012	928.87756	-1143.24353	-741.25940	939.31750	-969.65271	-562.56073	955.31140	-1117.16968	-577.40039	972.02637	-856.86169	-660.88910	625.12585	-873.59985	-673.01642	445.18323	-891.10822	-516.90204	323.93741	-945.39398	-369.57532	183.82652	-991.17291	-322.66010	189.27206	-953.29718	-437.73038	51.81371	-1184.08496	-703.30408	646.99084	-1141.97131	-730.80182	468.97656	-1143.67688	-700.19714	281.08722	-1089.71472	-687.94147	66.14825	-1039.77075	-641.80707	34.73178	-1069.29504	-829.14276	30.96265	-1043.97095	-649.26520	1673.28320															 
266	2.650	-993.79083	-745.40466	1623.84924	-1127.06653	-740.08148	1624.41284	-993.28198	-622.40570	1567.07581	-1123.57605	-622.16730	1567.60181	-1046.56079	-602.09436	1411.47632	-1035.69312	-571.29871	1099.13196	-1043.40955	-724.64630	1336.96472	-1027.01270	-769.06366	1172.48804	-1132.89539	-551.00269	1230.41589	-889.91205	-683.09497	1381.71411	-809.01678	-675.80817	1188.05823	-789.64746	-681.21808	1066.00989	-779.73676	-709.70612	938.91962	-801.21741	-734.24231	819.93719	-752.66882	-706.09937	827.29700	-758.27264	-719.56830	742.07800	-1204.56775	-679.24072	1349.09314	-1267.69482	-687.92706	1124.16260	-1277.16748	-709.04980	1012.67151	-1275.58838	-730.74377	877.17853	-1237.86804	-763.62109	784.13898	-1282.61084	-733.27423	776.71234	-1270.54834	-758.33545	706.56097	-906.14563	-724.37817	929.29810	-1143.88342	-747.93689	939.35907	-971.15186	-568.08984	955.31830	-1118.52026	-583.96075	971.92218	-856.93237	-670.60510	625.75830	-872.57440	-687.27661	446.39636	-890.34650	-531.54205	325.09692	-944.74109	-384.30435	184.70891	-990.64557	-337.04642	189.63573	-951.93781	-453.41785	53.42517	-1184.37500	-708.91180	646.88019	-1142.14270	-735.26160	468.73660	-1143.70422	-702.82324	280.98007	-1089.54370	-688.10284	66.20483	-1039.76733	-641.82288	34.89214	-1069.12109	-829.19635	30.94355	-1044.13647	-655.85248	1673.10962															 
267	2.660	-993.77222	-751.84961	1624.09265	-1127.07678	-746.92102	1624.48706	-993.54871	-628.99677	1567.01599	-1123.89685	-629.13995	1567.45361	-1047.79675	-607.99658	1412.10510	-1037.06299	-577.48022	1099.43494	-1043.21948	-731.05939	1337.03687	-1026.74023	-775.04022	1172.45947	-1134.37610	-557.88757	1230.97095	-890.01361	-688.03656	1381.74292	-808.79437	-679.44965	1188.21350	-789.11072	-684.80688	1066.28662	-778.46906	-713.11115	939.14880	-799.39850	-737.93207	820.21893	-751.10846	-709.34882	827.76801	-755.77393	-723.90039	742.86536	-1204.67151	-687.15240	1349.26636	-1268.14233	-697.59406	1124.61475	-1277.85474	-719.44318	1013.31439	-1276.46619	-741.76703	877.88116	-1238.67371	-774.56561	784.89282	-1283.87573	-744.81879	777.55304	-1271.87036	-770.12860	707.49945	-906.71686	-730.20020	929.99939	-1144.50574	-754.58417	939.52350	-972.72174	-573.82227	955.35474	-1119.84802	-590.49377	971.87555	-857.16449	-680.61139	626.44891	-871.46307	-700.82159	447.58450	-889.60925	-546.54834	325.65521	-944.08484	-399.73743	184.81593	-989.91809	-352.14679	188.99620	-950.93225	-470.49417	54.58566	-1185.07227	-714.30896	647.00879	-1142.18347	-739.64777	468.50562	-1143.71826	-705.49237	280.84698	-1089.42920	-688.19806	66.33730	-1039.80908	-641.84314	35.06104	-1068.94788	-829.34784	31.05569	-1044.60254	-662.26868	1673.15247															 
268	2.670	-993.69116	-758.23126	1624.35156	-1126.97937	-753.79114	1624.56482	-993.83228	-635.50818	1567.14709	-1124.12170	-636.03760	1567.43274	-1048.67590	-614.52563	1412.38867	-1038.55298	-583.42365	1099.74866	-1042.99902	-737.36963	1337.16809	-1026.52393	-780.92053	1172.46851	-1135.92432	-564.65295	1231.62292	-890.14050	-692.88159	1381.83606	-808.93311	-682.30878	1188.42456	-788.53064	-688.30988	1066.56946	-777.31305	-716.51788	939.61621	-797.47467	-741.92438	820.75134	-749.75128	-712.82745	828.34814	-753.45197	-728.48199	743.83521	-1204.75232	-694.92719	1349.66711	-1268.43274	-707.26813	1125.25500	-1278.13782	-729.97430	1014.16229	-1277.25720	-752.87244	878.85522	-1239.21277	-785.30164	785.63110	-1285.06812	-756.46521	778.50836	-1273.19336	-782.01105	708.62592	-907.32507	-735.98126	930.84814	-1145.27673	-761.14789	939.55182	-973.99011	-579.87140	955.49475	-1121.14380	-597.03033	971.83215	-857.40576	-690.77179	627.32172	-870.70020	-714.83197	448.87247	-888.95380	-561.82312	325.67957	-943.50366	-415.73331	183.95451	-989.16980	-367.75525	187.17313	-950.52185	-489.35236	55.38385	-1184.67712	-720.63281	646.55005	-1142.17847	-743.98981	468.23474	-1143.76257	-708.11182	280.70819	-1089.30249	-688.43115	66.42238	-1039.88940	-641.86926	35.27378	-1068.83472	-829.47064	31.03551	-1044.84216	-668.81177	1673.21582															 
